<mxfile host="app.diagrams.net" modified="2023-09-27T04:07:08.979Z" agent="Mozilla/5.0 (Windows NT 10.0; Win64; x64) AppleWebKit/537.36 (KHTML, like Gecko) Chrome/117.0.0.0 Safari/537.36" etag="fzRKOg0OQZVCtzlewCLc" version="21.8.2" type="github">
  <diagram id="C5RBs43oDa-KdzZeNtuy" name="Page-1">
    <mxGraphModel dx="1419" dy="706" grid="1" gridSize="10" guides="1" tooltips="1" connect="1" arrows="1" fold="1" page="1" pageScale="1" pageWidth="827" pageHeight="1169" math="0" shadow="0">
      <root>
        <mxCell id="WIyWlLk6GJQsqaUBKTNV-0" />
        <mxCell id="WIyWlLk6GJQsqaUBKTNV-1" parent="WIyWlLk6GJQsqaUBKTNV-0" />
        <mxCell id="THGPqbEYL-iA6FvTC-Yj-2" value="" style="edgeStyle=orthogonalEdgeStyle;rounded=0;orthogonalLoop=1;jettySize=auto;html=1;entryX=0.5;entryY=0;entryDx=0;entryDy=0;" edge="1" parent="WIyWlLk6GJQsqaUBKTNV-1" source="THGPqbEYL-iA6FvTC-Yj-0" target="THGPqbEYL-iA6FvTC-Yj-3">
          <mxGeometry relative="1" as="geometry">
            <mxPoint x="414" y="160" as="targetPoint" />
            <Array as="points">
              <mxPoint x="414" y="135" />
              <mxPoint x="415" y="135" />
            </Array>
          </mxGeometry>
        </mxCell>
        <mxCell id="THGPqbEYL-iA6FvTC-Yj-0" value="start" style="ellipse;whiteSpace=wrap;html=1;" vertex="1" parent="WIyWlLk6GJQsqaUBKTNV-1">
          <mxGeometry x="354" y="30" width="120" height="80" as="geometry" />
        </mxCell>
        <mxCell id="THGPqbEYL-iA6FvTC-Yj-5" value="" style="edgeStyle=orthogonalEdgeStyle;rounded=0;orthogonalLoop=1;jettySize=auto;html=1;entryX=0.5;entryY=0;entryDx=0;entryDy=0;fillColor=#d5e8d4;strokeColor=#82b366;" edge="1" parent="WIyWlLk6GJQsqaUBKTNV-1" source="THGPqbEYL-iA6FvTC-Yj-3" target="THGPqbEYL-iA6FvTC-Yj-21">
          <mxGeometry relative="1" as="geometry">
            <mxPoint x="661" y="350" as="targetPoint" />
          </mxGeometry>
        </mxCell>
        <mxCell id="THGPqbEYL-iA6FvTC-Yj-7" value="" style="edgeStyle=orthogonalEdgeStyle;rounded=0;orthogonalLoop=1;jettySize=auto;html=1;fillColor=#f8cecc;strokeColor=#b85450;" edge="1" parent="WIyWlLk6GJQsqaUBKTNV-1" source="THGPqbEYL-iA6FvTC-Yj-3" target="THGPqbEYL-iA6FvTC-Yj-6">
          <mxGeometry relative="1" as="geometry" />
        </mxCell>
        <mxCell id="THGPqbEYL-iA6FvTC-Yj-3" value="mbSlot?" style="rhombus;whiteSpace=wrap;html=1;" vertex="1" parent="WIyWlLk6GJQsqaUBKTNV-1">
          <mxGeometry x="347" y="160" width="134" height="134" as="geometry" />
        </mxCell>
        <mxCell id="THGPqbEYL-iA6FvTC-Yj-25" style="edgeStyle=orthogonalEdgeStyle;rounded=0;orthogonalLoop=1;jettySize=auto;html=1;entryX=1;entryY=0.5;entryDx=0;entryDy=0;exitX=0.5;exitY=1;exitDx=0;exitDy=0;" edge="1" parent="WIyWlLk6GJQsqaUBKTNV-1" source="THGPqbEYL-iA6FvTC-Yj-4" target="THGPqbEYL-iA6FvTC-Yj-24">
          <mxGeometry relative="1" as="geometry">
            <mxPoint x="747" y="600" as="sourcePoint" />
            <mxPoint x="560" y="680" as="targetPoint" />
            <Array as="points">
              <mxPoint x="660" y="640" />
              <mxPoint x="560" y="640" />
              <mxPoint x="560" y="660" />
            </Array>
          </mxGeometry>
        </mxCell>
        <mxCell id="THGPqbEYL-iA6FvTC-Yj-4" value="typeMax = result" style="whiteSpace=wrap;html=1;" vertex="1" parent="WIyWlLk6GJQsqaUBKTNV-1">
          <mxGeometry x="560" y="520" width="202" height="60" as="geometry" />
        </mxCell>
        <mxCell id="THGPqbEYL-iA6FvTC-Yj-12" value="" style="edgeStyle=orthogonalEdgeStyle;rounded=0;orthogonalLoop=1;jettySize=auto;html=1;fillColor=#d5e8d4;strokeColor=#82b366;" edge="1" parent="WIyWlLk6GJQsqaUBKTNV-1" source="THGPqbEYL-iA6FvTC-Yj-6" target="THGPqbEYL-iA6FvTC-Yj-11">
          <mxGeometry relative="1" as="geometry" />
        </mxCell>
        <mxCell id="THGPqbEYL-iA6FvTC-Yj-15" style="edgeStyle=orthogonalEdgeStyle;rounded=0;orthogonalLoop=1;jettySize=auto;html=1;exitX=0;exitY=0.5;exitDx=0;exitDy=0;fillColor=#f8cecc;strokeColor=#b85450;" edge="1" parent="WIyWlLk6GJQsqaUBKTNV-1" source="THGPqbEYL-iA6FvTC-Yj-6" target="THGPqbEYL-iA6FvTC-Yj-18">
          <mxGeometry relative="1" as="geometry">
            <mxPoint x="70" y="551" as="targetPoint" />
          </mxGeometry>
        </mxCell>
        <mxCell id="THGPqbEYL-iA6FvTC-Yj-6" value="ifFromSets" style="rhombus;whiteSpace=wrap;html=1;" vertex="1" parent="WIyWlLk6GJQsqaUBKTNV-1">
          <mxGeometry x="133" y="160" width="134" height="134" as="geometry" />
        </mxCell>
        <mxCell id="THGPqbEYL-iA6FvTC-Yj-8" value="Yes" style="text;html=1;align=center;verticalAlign=middle;resizable=0;points=[];autosize=1;strokeColor=#82b366;fillColor=#d5e8d4;" vertex="1" parent="WIyWlLk6GJQsqaUBKTNV-1">
          <mxGeometry x="491" y="197" width="40" height="30" as="geometry" />
        </mxCell>
        <mxCell id="THGPqbEYL-iA6FvTC-Yj-9" value="No" style="text;html=1;align=center;verticalAlign=middle;resizable=0;points=[];autosize=1;strokeColor=#b85450;fillColor=#f8cecc;" vertex="1" parent="WIyWlLk6GJQsqaUBKTNV-1">
          <mxGeometry x="290" y="197" width="40" height="30" as="geometry" />
        </mxCell>
        <mxCell id="THGPqbEYL-iA6FvTC-Yj-10" value="&lt;h1 style=&quot;border-color: var(--border-color);&quot;&gt;mbSlot = false&lt;br&gt;&lt;ol style=&quot;font-size: 12px;&quot;&gt;&lt;li&gt;&lt;span style=&quot;font-weight: 400; font-size: 12px;&quot;&gt;&lt;font style=&quot;font-size: 12px;&quot;&gt;ไม่มีของ&lt;/font&gt;&lt;/span&gt;&lt;/li&gt;&lt;li&gt;&lt;span style=&quot;font-weight: normal;&quot;&gt;มีของแต่ไม่มี ข้อมูล&lt;/span&gt;&lt;/li&gt;&lt;/ol&gt;&lt;/h1&gt;" style="text;html=1;strokeColor=none;fillColor=#f8cecc;spacing=5;spacingTop=-20;whiteSpace=wrap;overflow=hidden;rounded=0;fillStyle=hatch;" vertex="1" parent="WIyWlLk6GJQsqaUBKTNV-1">
          <mxGeometry x="105" y="70" width="190" height="120" as="geometry" />
        </mxCell>
        <mxCell id="THGPqbEYL-iA6FvTC-Yj-17" style="edgeStyle=orthogonalEdgeStyle;rounded=0;orthogonalLoop=1;jettySize=auto;html=1;entryX=0.5;entryY=0;entryDx=0;entryDy=0;" edge="1" parent="WIyWlLk6GJQsqaUBKTNV-1" source="THGPqbEYL-iA6FvTC-Yj-11" target="THGPqbEYL-iA6FvTC-Yj-16">
          <mxGeometry relative="1" as="geometry" />
        </mxCell>
        <mxCell id="THGPqbEYL-iA6FvTC-Yj-11" value="result = 0" style="whiteSpace=wrap;html=1;" vertex="1" parent="WIyWlLk6GJQsqaUBKTNV-1">
          <mxGeometry x="135" y="370" width="130" height="60" as="geometry" />
        </mxCell>
        <mxCell id="THGPqbEYL-iA6FvTC-Yj-14" value="Yes" style="text;html=1;align=center;verticalAlign=middle;resizable=0;points=[];autosize=1;strokeColor=#82b366;fillColor=#d5e8d4;" vertex="1" parent="WIyWlLk6GJQsqaUBKTNV-1">
          <mxGeometry x="200" y="308" width="40" height="30" as="geometry" />
        </mxCell>
        <mxCell id="THGPqbEYL-iA6FvTC-Yj-20" style="edgeStyle=orthogonalEdgeStyle;rounded=0;orthogonalLoop=1;jettySize=auto;html=1;entryX=0;entryY=0.5;entryDx=0;entryDy=0;" edge="1" parent="WIyWlLk6GJQsqaUBKTNV-1" source="THGPqbEYL-iA6FvTC-Yj-16" target="THGPqbEYL-iA6FvTC-Yj-4">
          <mxGeometry relative="1" as="geometry" />
        </mxCell>
        <mxCell id="THGPqbEYL-iA6FvTC-Yj-16" value="" style="ellipse;whiteSpace=wrap;html=1;" vertex="1" parent="WIyWlLk6GJQsqaUBKTNV-1">
          <mxGeometry x="354" y="535" width="30" height="30" as="geometry" />
        </mxCell>
        <mxCell id="THGPqbEYL-iA6FvTC-Yj-19" style="edgeStyle=orthogonalEdgeStyle;rounded=0;orthogonalLoop=1;jettySize=auto;html=1;entryX=0;entryY=0.5;entryDx=0;entryDy=0;" edge="1" parent="WIyWlLk6GJQsqaUBKTNV-1" source="THGPqbEYL-iA6FvTC-Yj-18" target="THGPqbEYL-iA6FvTC-Yj-16">
          <mxGeometry relative="1" as="geometry">
            <Array as="points">
              <mxPoint x="70" y="550" />
            </Array>
          </mxGeometry>
        </mxCell>
        <mxCell id="THGPqbEYL-iA6FvTC-Yj-18" value="result = default" style="rounded=0;whiteSpace=wrap;html=1;" vertex="1" parent="WIyWlLk6GJQsqaUBKTNV-1">
          <mxGeometry x="13" y="370" width="120" height="60" as="geometry" />
        </mxCell>
        <mxCell id="THGPqbEYL-iA6FvTC-Yj-22" style="edgeStyle=orthogonalEdgeStyle;rounded=0;orthogonalLoop=1;jettySize=auto;html=1;entryX=0.5;entryY=0;entryDx=0;entryDy=0;" edge="1" parent="WIyWlLk6GJQsqaUBKTNV-1" source="THGPqbEYL-iA6FvTC-Yj-21" target="THGPqbEYL-iA6FvTC-Yj-4">
          <mxGeometry relative="1" as="geometry" />
        </mxCell>
        <mxCell id="THGPqbEYL-iA6FvTC-Yj-21" value="result = mbSlot" style="rounded=0;whiteSpace=wrap;html=1;" vertex="1" parent="WIyWlLk6GJQsqaUBKTNV-1">
          <mxGeometry x="601" y="380" width="120" height="60" as="geometry" />
        </mxCell>
        <mxCell id="THGPqbEYL-iA6FvTC-Yj-23" value="No" style="text;html=1;align=center;verticalAlign=middle;resizable=0;points=[];autosize=1;strokeColor=#b85450;fillColor=#f8cecc;" vertex="1" parent="WIyWlLk6GJQsqaUBKTNV-1">
          <mxGeometry x="80" y="197" width="40" height="30" as="geometry" />
        </mxCell>
        <mxCell id="THGPqbEYL-iA6FvTC-Yj-24" value="End" style="ellipse;whiteSpace=wrap;html=1;" vertex="1" parent="WIyWlLk6GJQsqaUBKTNV-1">
          <mxGeometry x="361" y="600" width="120" height="80" as="geometry" />
        </mxCell>
      </root>
    </mxGraphModel>
  </diagram>
</mxfile>
